<svg version="1.1" xmlns="http://www.w3.org/2000/svg" xmlns:xlink="http://www.w3.org/1999/xlink" viewBox="0 0 48 48"><defs><linearGradient x1="11.68966" y1="11.68966" x2="57.52354" y2="57.52354" gradientUnits="userSpaceOnUse" id="color-1"><stop offset="0" stop-color="#000000" stop-opacity="0.7"></stop><stop offset="1" stop-color="#000000" stop-opacity="0"></stop></linearGradient><filter id="dropshadow-base"><feColorMatrix type="matrix" values="0 0 0 0 0  0 0 0 0 0  0 0 0 0 0  0 0 0 .8 0"></feColorMatrix> <feOffset dx="0" dy="1"></feOffset> <feGaussianBlur stdDeviation="1"></feGaussianBlur> <feComposite in="SourceGraphic"></feComposite></filter><filter id="dropshadow-banner" x="-10%" y="-10%" width="120%" height="130%"><feColorMatrix type="matrix" values="0 0 0 0 0  0 0 0 0 0  0 0 0 0 0  0 0 0 .4 0"></feColorMatrix> <feOffset dx="0" dy="1"></feOffset> <feGaussianBlur stdDeviation="0.5"></feGaussianBlur> <feComposite in="SourceGraphic"></feComposite></filter></defs><g fill="none" fill-rule="nonzero" stroke="none" stroke-width="none" stroke-linecap="butt" stroke-linejoin="miter" stroke-miterlimit="10" stroke-dasharray="" stroke-dashoffset="0" font-family="none" font-weight="none" font-size="none" text-anchor="none" style="mix-blend-mode: normal"><path d="M3,24c0,-11.59798 9.40202,-21 21,-21c11.59798,0 21,9.40202 21,21c0,11.59798 -9.40202,21 -21,21c-11.59798,0 -21,-9.40202 -21,-21z" id="base 1 1" fill="#282828" stroke-width="1" filter="url(#dropshadow-base)"></path><path d="M33.35598,14.89047l11.50849,11.50849c-1.06477,9.36296 -8.28677,16.85758 -17.51801,18.33586l-12.04064,-12.04064c-2.23125,-2.23125 -3.61616,-5.30884 -3.61616,-8.69418c0,-6.77069 5.53965,-12.31034 12.31034,-12.31034c1.66202,0 3.20081,0.30776 4.61638,0.92328l3.50496,3.50496z" fill="url(#color-1)" stroke-width="1"></path><path d="M33.84827,24c0,5.41643 -4.4319,9.84827 -9.84827,9.84827c-5.41637,0 -9.84827,-4.43184 -9.84827,-9.84827c0,-5.41643 4.43184,-9.84827 9.84827,-9.84827c0.92328,0 1.84655,0.12322 2.70851,0.36937l1.90787,-1.90816c-1.41557,-0.61552 -2.95436,-0.92328 -4.61638,-0.92328c-6.77069,0 -12.31034,5.53965 -12.31034,12.31034c0,6.77069 5.53965,12.31034 12.31034,12.31034c6.77069,0 12.31034,-5.53965 12.31034,-12.31034z M18.95264,21.66115l-1.72333,1.72333l5.53965,5.53965l12.31034,-12.31034l-1.72333,-1.72333l-10.58701,10.5251z" fill="#a8a8a8" stroke-width="0"></path></g></svg>
