<svg viewBox="0 0 48 48" version="1.1" xmlns="http://www.w3.org/2000/svg" xmlns:xlink="http://www.w3.org/1999/xlink"><defs><linearGradient x1="11.70447" y1="11.68965" x2="57.50872" y2="57.52354" gradientUnits="userSpaceOnUse" id="color-1"><stop offset="0" stop-color="#000000" stop-opacity="0.5"></stop><stop offset="1" stop-color="#000000" stop-opacity="0"></stop></linearGradient><filter id="dropshadow"><feColorMatrix type="matrix" values="0 0 0 0 .05  0 0 0 0 .15  0 0 0 0 .1  0 0 0 .8 0"></feColorMatrix> <feOffset dx="0" dy="1"></feOffset> <feGaussianBlur stdDeviation="1"></feGaussianBlur> <feComposite in="SourceGraphic"></feComposite></filter></defs><g fill="none" stroke="none" stroke-width="none" stroke-linecap="butt" stroke-linejoin="miter" stroke-miterlimit="none" stroke-dasharray="" stroke-dashoffset="0" font-family="none" font-weight="none" font-size="none" text-anchor="start" mix-blend-mode="normal"><g fill="#000000" stroke="none" stroke-width="1" stroke-miterlimit="4" font-family="&quot;Open Sans&quot;,sans-serif" font-weight="400" font-size="14"><g><g></g></g></g><path d="M5,45c-1.10457,0 -2,-0.89543 -2,-2l0,-38c0,-1.10457 0.89543,-2 2,-2l38,0c1.10457,0 2,0.89543 2,2l0,38c0,1.10457 -0.89543,2 -2,2z" fill="#2c3e50" stroke-width="1" stroke-miterlimit="10" font-family="sans-serif" font-weight="normal" font-size="12" filter="url(#dropshadow)"></path><path d="M27.58912,45l-12.29245,-12.29245c0.00313,0.00313 0.00625,0.00625 0.00938,0.00937l-0.00938,-0.00938c-4.7896,-4.7896 -4.7896,-12.60978 0,-17.39937c4.06904,-4.06904 10.32094,-4.7896 15.19531,-1.73782l0.00003,0.00003c0.05632,0.03557 0.10724,0.07653 0.15249,0.12177l1.37639,1.37639c0.29276,-0.11513 0.63617,-0.07296 0.88708,0.13367c0.01406,0.0124 0.02763,0.02516 0.04072,0.03825l12.05131,12.05131l0,15.70823c0,1.10457 -0.89543,2 -2,2z" fill="url(#color-1)" stroke-width="1" stroke-miterlimit="10" font-family="sans-serif" font-weight="normal" font-size="12"></path><path d="M30.49198,13.57036c0.40267,0.25431 0.52982,0.78414 0.27551,1.1868c-0.25431,0.40267 -0.78414,0.52982 -1.1868,0.27551c-4.19619,-2.60673 -9.558,-1.99213 -13.07602,1.5047c-4.11142,4.11142 -4.11142,10.82957 0,14.94099c4.11142,4.11142 10.82957,4.11142 14.94099,0c3.51802,-3.51802 4.13262,-8.90102 1.4835,-13.09721c-0.25431,-0.40267 -0.12716,-0.93249 0.27551,-1.1868c0.40267,-0.25431 0.93249,-0.12716 1.1868,0.27551c3.07297,4.87437 2.3736,11.14747 -1.71662,15.23769c-2.3948,2.3948 -5.55254,3.60279 -8.68909,3.60279c-3.13655,0 -6.29429,-1.208 -8.68909,-3.60279c-4.7896,-4.7896 -4.7896,-12.60978 0,-17.39937c4.06904,-4.06904 10.32094,-4.7896 15.19531,-1.73782z M18.92066,23.2767l3.32729,3.32729l9.43084,-11.29582c0.31789,-0.36028 0.86891,-0.40267 1.22919,-0.10596c0.36028,0.31789 0.40267,0.86891 0.10596,1.22919l-10.02424,12.01637c-0.16954,0.19074 -0.40267,0.2967 -0.63579,0.31789c-0.02119,0 -0.02119,0 -0.04239,0c-0.23312,0 -0.44505,-0.08477 -0.61459,-0.25431l-4.00546,-4.00546c-0.33909,-0.33909 -0.33909,-0.8901 0,-1.22919c0.33909,-0.33909 0.8901,-0.33909 1.22919,0z" fill="#ffffff" stroke-width="0" stroke-miterlimit="10" font-family="sans-serif" font-weight="normal" font-size="12"></path></g></svg>
